<svg width="240" height="39" viewBox="0 0 240 39" fill="none" xmlns="http://www.w3.org/2000/svg">
<path d="M35.9873 12.1759V37.9999H43.4753V12.1759H35.9873Z" fill="#33475B"/>
<path d="M36.3713 7.37588C37.2353 8.17588 38.3553 8.57588 39.7313 8.57588C41.1393 8.57588 42.2593 8.17588 43.0913 7.37588C43.9553 6.54388 44.3873 5.50388 44.3873 4.25588C44.3873 3.07188 43.9553 2.11188 43.0913 1.37588C42.2273 0.607878 41.1073 0.223877 39.7313 0.223877C38.3553 0.223877 37.2353 0.623878 36.3713 1.42388C35.5073 2.22388 35.0753 3.21588 35.0753 4.39988C35.0753 5.58388 35.5073 6.57588 36.3713 7.37588Z" fill="#33475B"/>
<path d="M8.71201 29.5182V37.9999H0.984009V4.39988H8.71201V20.0794L23.592 4.39988H32.232L18.3214 19.3699L33.048 37.9999H23.976L13.2146 24.8182L8.71201 29.5182Z" fill="#33475B"/>
<path d="M60.9848 38.3839C57.9448 38.3839 55.5768 37.6159 53.8808 36.0799C52.1848 34.5119 51.3368 32.1919 51.3368 29.1199V18.5119H47.3528V12.7519H51.3368V6.46388H58.8248V12.7519H65.2568V18.5119H58.8248V29.0239C58.8248 30.1119 59.1128 30.9599 59.6888 31.5679C60.2648 32.1439 61.0488 32.4319 62.0408 32.4319C63.2248 32.4319 64.2328 32.1119 65.0648 31.4719L67.0808 36.7519C66.3128 37.2959 65.3848 37.7119 64.2968 37.9999C63.2408 38.2559 62.1368 38.3839 60.9848 38.3839Z" fill="#33475B"/>
<path d="M75.5273 36.7039C77.7033 37.8239 80.1833 38.3839 82.9673 38.3839C85.6873 38.3839 88.0553 37.8239 90.0713 36.7039C92.0873 35.5519 93.5753 33.9359 94.5353 31.8559L88.7273 28.6879C88.0553 29.9359 87.2073 30.8479 86.1833 31.4239C85.1913 31.9679 84.1033 32.2399 82.9193 32.2399C81.6393 32.2399 80.4873 31.9519 79.4633 31.3759C78.4393 30.7999 77.6233 29.9839 77.0153 28.9279C76.4393 27.8719 76.1513 26.5919 76.1513 25.0879C76.1513 23.5839 76.4393 22.3039 77.0153 21.2479C77.6233 20.1919 78.4393 19.3759 79.4633 18.7999C80.4873 18.2239 81.6393 17.9359 82.9193 17.9359C84.1033 17.9359 85.1913 18.2239 86.1833 18.7999C87.2073 19.3759 88.0553 20.2719 88.7273 21.4879L94.5353 18.3679C93.5753 16.2559 92.0873 14.6399 90.0713 13.5199C88.0553 12.3679 85.6873 11.7919 82.9673 11.7919C80.1833 11.7919 77.7033 12.3679 75.5273 13.5199C73.3513 14.6399 71.6393 16.2079 70.3913 18.2239C69.1753 20.2079 68.5673 22.4959 68.5673 25.0879C68.5673 27.6479 69.1753 29.9359 70.3913 31.9519C71.6393 33.9679 73.3513 35.5519 75.5273 36.7039Z" fill="#33475B"/>
<path d="M114.402 11.7919C116.45 11.7919 118.274 12.2079 119.874 13.0399C121.506 13.8399 122.786 15.0879 123.714 16.7839C124.642 18.4479 125.106 20.5919 125.106 23.2159V37.9999H117.618V24.3679C117.618 22.2879 117.154 20.7519 116.226 19.7599C115.33 18.7679 114.05 18.2719 112.386 18.2719C111.202 18.2719 110.13 18.5279 109.17 19.0399C108.242 19.5199 107.506 20.2719 106.962 21.2959C106.45 22.3199 106.194 23.6319 106.194 25.2319V37.9999H98.706V2.38388H106.194V14.8879C106.861 14.2187 107.629 13.6507 108.498 13.1839C110.226 12.2559 112.194 11.7919 114.402 11.7919Z" fill="#33475B"/>
<path fill-rule="evenodd" clip-rule="evenodd" d="M137.121 36.6559C139.361 37.8079 141.953 38.3839 144.897 38.3839C147.233 38.3839 149.297 38.0319 151.089 37.3279C152.881 36.5919 154.369 35.5519 155.553 34.2079L151.569 29.8879C150.705 30.7199 149.745 31.3439 148.689 31.7599C147.665 32.1759 146.465 32.3839 145.089 32.3839C143.553 32.3839 142.209 32.1119 141.057 31.5679C139.937 30.9919 139.057 30.1759 138.417 29.1199C138.086 28.5273 137.845 27.8873 137.694 27.1999H157.233C157.265 26.8799 157.297 26.5439 157.329 26.1919C157.361 25.8079 157.377 25.4719 157.377 25.1839C157.377 22.3999 156.785 20.0159 155.601 18.0319C154.417 16.0159 152.801 14.4799 150.753 13.4239C148.737 12.3359 146.465 11.7919 143.937 11.7919C141.313 11.7919 138.961 12.3679 136.881 13.5199C134.801 14.6399 133.153 16.2079 131.937 18.2239C130.753 20.2079 130.161 22.4959 130.161 25.0879C130.161 27.6479 130.769 29.9359 131.985 31.9519C133.201 33.9359 134.913 35.5039 137.121 36.6559ZM137.608 22.8319C137.732 22.0319 137.97 21.3119 138.321 20.6719C138.865 19.6479 139.617 18.8639 140.577 18.3199C141.569 17.7439 142.705 17.4559 143.985 17.4559C145.265 17.4559 146.385 17.7439 147.345 18.3199C148.305 18.8639 149.057 19.6319 149.601 20.6239C149.962 21.2823 150.203 22.0183 150.325 22.8319H137.608Z" fill="#33475B"/>
<path d="M178.058 11.7919C180.106 11.7919 181.93 12.2079 183.53 13.0399C185.162 13.8399 186.442 15.0879 187.37 16.7839C188.298 18.4479 188.762 20.5919 188.762 23.2159V37.9999H181.274V24.3679C181.274 22.2879 180.81 20.7519 179.882 19.7599C178.986 18.7679 177.706 18.2719 176.042 18.2719C174.858 18.2719 173.786 18.5279 172.826 19.0399C171.898 19.5199 171.162 20.2719 170.618 21.2959C170.106 22.3199 169.85 23.6319 169.85 25.2319V37.9999H162.362V12.1759H169.514V15.2432C170.255 14.4176 171.135 13.7312 172.154 13.1839C173.882 12.2559 175.85 11.7919 178.058 11.7919Z" fill="#33475B"/>
<path fill-rule="evenodd" clip-rule="evenodd" d="M213.656 37.3759C215.576 38.1759 217.768 38.5759 220.232 38.5759C223.368 38.5759 226.2 37.9199 228.728 36.6079C229.704 36.1012 230.621 35.5133 231.478 34.8443L235.496 38.5759L239.576 33.8239L235.677 30.2103C237.104 27.9948 238.115 25.4393 238.712 22.5439L232.712 20.6719C232.347 22.6394 231.789 24.3857 231.038 25.9107L224.885 20.2079C225.711 19.7515 226.448 19.2981 227.096 18.8479C228.6 17.8239 229.704 16.7359 230.408 15.5839C231.112 14.3999 231.464 13.1039 231.464 11.6959C231.464 10.0959 231.048 8.71988 230.216 7.56788C229.416 6.41588 228.296 5.53588 226.856 4.92788C225.448 4.28788 223.768 3.96788 221.816 3.96788C219.704 3.96788 217.863 4.31988 216.296 5.02388C214.728 5.69588 213.512 6.65588 212.648 7.90388C211.784 9.15188 211.352 10.5919 211.352 12.2239C211.352 13.1519 211.496 14.0479 211.784 14.9119C212.104 15.7759 212.6 16.6559 213.272 17.5519C213.701 18.125 214.223 18.7243 214.836 19.3499C213.784 19.9421 212.847 20.5427 212.024 21.1519C210.424 22.3039 209.256 23.5519 208.52 24.8959C207.784 26.2079 207.416 27.6959 207.416 29.3599C207.416 31.1519 207.976 32.7359 209.096 34.1119C210.215 35.4879 211.736 36.5759 213.656 37.3759ZM218.903 23.1658C218.334 23.4897 217.832 23.8104 217.4 24.1279C216.472 24.7999 215.8 25.4879 215.384 26.1919C214.968 26.8959 214.76 27.6799 214.76 28.5439C214.76 29.3439 215 30.0639 215.48 30.7039C215.992 31.3439 216.696 31.8399 217.592 32.1919C218.488 32.5439 219.544 32.7199 220.76 32.7199C222.712 32.7199 224.504 32.2719 226.136 31.3759C226.463 31.1898 226.78 30.9865 227.086 30.7657L218.903 23.1658ZM220.783 16.3809C221.376 16.065 221.896 15.7673 222.344 15.4879C223.368 14.8479 224.088 14.2399 224.504 13.6639C224.92 13.0559 225.128 12.4479 225.128 11.8399C225.128 11.0079 224.84 10.3359 224.264 9.82388C223.719 9.31188 222.904 9.05588 221.816 9.05588C220.664 9.05588 219.768 9.34388 219.128 9.91988C218.488 10.4959 218.168 11.2319 218.168 12.1279C218.168 12.6079 218.264 13.0879 218.456 13.5679C218.648 14.0159 219.016 14.5439 219.56 15.1519C219.886 15.498 220.294 15.9077 220.783 16.3809Z" fill="#33475B"/>
</svg>
