<svg width="199" height="202" viewBox="0 0 199 202" fill="none" xmlns="http://www.w3.org/2000/svg">
<path d="M23.5 31L164.885 31.0002V172.985H23.5" stroke="#98CBFF"/>
<path d="M22.9008 47.5V16H183.206V186.992H22.9008V156.5" stroke="#98CBFF"/>
<path d="M33.5878 16.5V1H198.473V201H33.5878V186.5" stroke="#98CBFF"/>
<rect x="34.0878" y="47.5" width="108.924" height="108.924" stroke="#98CBFF"/>
<path d="M34.3019 88.4273C61.4243 97.8487 66.4647 82.0487 88.5467 88.4273C114.949 96.054 128.39 80.3518 143.511 88.4273" stroke="#98CBFF"/>
<path d="M34.3019 101.521C61.4243 110.942 66.4647 95.1424 88.5467 101.521C114.949 109.148 128.39 93.4455 143.511 101.521" stroke="#98CBFF"/>
<path d="M34.3019 114.614C61.4243 124.036 66.4647 108.236 88.5467 114.614C114.949 122.241 128.39 106.539 143.511 114.614" stroke="#98CBFF"/>
<path d="M34.3019 127.708C61.4243 137.129 66.4647 121.329 88.5467 127.708C114.949 135.334 128.39 119.632 143.511 127.708" stroke="#98CBFF"/>
<path d="M34.3019 75.3346C61.4243 84.7559 66.4647 68.9559 88.5467 75.3346C114.949 82.9612 128.39 67.259 143.511 75.3346" stroke="#98CBFF"/>
<rect x="0.5" y="47.5" width="197.473" height="108.924" stroke="#98CBFF"/>
</svg>
